<svg version="1.2" xmlns="http://www.w3.org/2000/svg" viewBox="0 0 380 380" width="380" height="380">
	<title>cc85b836-d825-42e6-af28-5bf87a0440ef</title>
	<style>
		.s0 { opacity: .99;fill: #3697e2 } 
	</style>
	<path id="Path 0" fill-rule="evenodd" class="s0" d="m189.9 4c8 0 18.7 0.5 23.6 1.1 4.9 0.6 14.6 2.4 21.5 4 6.9 1.7 17.2 4.8 23 7.1 5.8 2.2 13.9 5.9 18 8.1 4.1 2.2 11.8 6.7 17 10.1 5.2 3.4 13.7 9.8 18.9 14.2 5.2 4.3 13.1 12.2 17.7 17.4 4.5 5.2 11.1 13.9 14.8 19.3 3.6 5.3 8.6 13.8 11.1 18.7 2.5 5 5.8 12.3 7.4 16.3 1.6 3.9 4 11.3 5.3 16.2 1.4 4.9 3.1 11.7 3.7 15 0.6 3.3 1.6 9.2 2.1 13 0.5 3.8 1 15.2 1 25.3 0 13.8-0.5 21-2 30-1.1 6.4-3 15.1-4.1 19.2-1.1 4.1-3.6 11.8-5.6 17-2 5.2-5.6 13.6-8.1 18.5-2.4 4.9-7.7 13.9-11.7 20-4.6 6.8-11.8 15.7-19.2 23.4-6.5 6.8-15.4 15.2-19.8 18.6-4.4 3.5-12.5 9-18 12.3-5.5 3.3-15.4 8.4-22 11.2-6.6 2.9-17.4 6.7-24 8.5-6.6 1.8-14 3.6-16.5 3.9-2.5 0.4-8.3 1.1-13 1.6-4.7 0.5-14.9 1-22.8 1-7.8 0-19.5-0.7-26-1.5-6.4-0.9-15.1-2.5-19.2-3.5-4.1-1.1-11.3-3.3-16-4.9-4.7-1.6-12.1-4.6-16.5-6.7-4.4-2-11.6-5.8-16-8.4-4.4-2.6-11.4-7.4-15.5-10.6-4.1-3.1-10.6-8.5-14.3-11.8-3.8-3.4-10.3-10.1-14.5-15.1-4.2-4.9-10.6-13.2-14-18.5-3.5-5.2-9-14.9-12.3-21.5-3.2-6.6-7.6-17.4-9.8-24-2.2-6.6-5-17.4-6.3-24-2-10.4-2.3-15.2-2.3-35.5 0-15.8 0.4-25.8 1.4-30.5 0.7-3.8 2.2-10.7 3.2-15.2 1.1-4.6 3.5-12.7 5.5-18 2-5.4 6.1-14.8 9.1-20.8 3.1-6 7.7-14.2 10.3-18 2.6-3.8 7.4-10.4 10.7-14.5 3.2-4.1 9-10.7 12.9-14.5 3.8-3.9 10.1-9.6 13.9-12.6 3.8-3.1 10.4-7.8 14.5-10.6 4.1-2.7 10.4-6.6 14-8.6 3.6-2 11.4-5.6 17.5-8 6-2.4 15.5-5.6 21-7 5.5-1.5 12.5-3.1 15.5-3.7 3-0.6 8.6-1.3 12.5-1.7 3.8-0.3 7.2-0.7 7.4-0.9 0.2-0.2 7-0.4 15-0.4zm-35.9 29.6c-4.1 0.9-12 3.2-17.5 5.1-5.5 2-14.1 5.5-19 8-5 2.5-12.6 6.9-17 9.7-4.4 2.9-11.8 8.6-16.4 12.7-4.7 4-11.8 11.2-15.9 15.9-4.1 4.7-9.5 11.7-12 15.5-2.6 3.8-7.2 12-10.2 18-3.1 6.1-7.3 16.2-9.3 22.5-2 6.3-4.4 15.1-5.3 19.5-0.8 4.4-1.8 14.3-2.1 22-0.4 8.6-0.1 17.9 0.6 24 0.7 5.5 2.1 13.7 3.2 18.3 1 4.5 3.5 12.6 5.5 18 2 5.3 6.5 15.3 10.1 22.2 3.6 6.9 9 16.1 12.1 20.5 3.2 4.4 8.2 10.9 11.3 14.5 3.1 3.6 9.8 9.9 15 14.1 5.2 4.2 11.9 9.2 14.9 11.2 3 1.9 9.5 5.5 14.5 8 4.9 2.5 13.5 6.1 19 8 5.5 1.9 14.1 4.4 19 5.5 4.9 1.1 10.6 2.4 12.5 2.7 1.9 0.4 9.8 0.9 17.5 1.2 10.6 0.4 16.5 0.1 24.5-1.2 5.8-0.9 13-2.4 16-3.1 3-0.8 9.8-2.8 15-4.6 5.2-1.7 14-5.2 19.5-7.8 5.5-2.6 14.7-7.9 20.5-11.8 5.8-3.9 13.3-9.8 16.7-13.1 3.5-3.4 6.2-6.3 6-6.6-0.1-0.2-2.7-0.7-5.7-1-3-0.3-6.2-0.9-7-1.2-0.8-0.4-38.6-0.9-84-1.3-78.6-0.6-82.8-0.7-88.5-2.6-3.3-1.1-8-3.4-10.5-5-2.5-1.7-6-5.3-7.8-8-1.9-2.9-3.4-6.7-3.8-9.4-0.4-3.1-0.1-5.1 0.9-6.5 0.8-1.1 33.2-33.5 72.1-72 38.8-38.5 70.9-70.7 71.1-71.5 0.3-0.8-0.1-2.4-0.8-3.5-0.8-1.1-3.4-2.7-5.8-3.5-3.6-1.2-11.7-1.4-45.9-1.2-22.8 0.1-49.4 0.5-59 0.8-17.2 0.6-17.6 0.6-21-1.8-1.9-1.2-4.5-3.9-5.7-5.8-1.3-1.9-2.3-4.7-2.3-6.2 0-1.6 0.7-4.1 1.5-5.8 0.8-1.7 2.5-3.7 3.8-4.5 1.9-1.3 12-1.5 77.2-1.5 68.9 0 75.4 0.1 80.5 1.7 3.1 1 7.5 3.1 9.9 4.8 2.4 1.7 5.7 4.6 7.3 6.5 1.6 1.9 3.2 4.8 3.6 6.5 0.5 1.7 0.6 4.3 0.3 5.9-0.5 2.2-18 20.2-72.9 74.8-47.6 47.3-72.2 72.5-72.2 73.8 0 1.1 1.2 3.1 2.8 4.5 1.5 1.5 4.3 3 6.2 3.6 1.9 0.5 6.4 1.4 10 1.9 4.1 0.7 33.9 1 81.5 0.8l75-0.3c8.8-4.1 12.5-6.9 15.2-10 2.4-2.7 5.7-7.7 7.5-11 1.7-3.3 4.4-9.8 6-14.5 1.6-4.7 3.5-11.4 4.3-15 0.7-3.6 1.9-10.6 2.5-15.5 0.6-4.9 1.1-13.9 1.1-20 0-6.1-0.5-15.1-1.1-20-0.7-4.9-2-12.4-3.1-16.5-1-4.1-3.2-11.3-4.8-16-1.6-4.7-4.1-11.2-5.6-14.5-1.5-3.3-5.1-10-8-15-2.9-4.9-7.9-12.4-11.2-16.5-3.3-4.1-9.3-10.9-13.4-15-4.1-4.1-11.2-10.4-15.9-14-4.7-3.5-12.3-8.7-17-11.3-4.7-2.7-12.6-6.6-17.5-8.8-4.9-2.1-13.3-5-18.5-6.4-5.2-1.4-13.6-3.2-18.5-4-4.9-0.8-14.6-1.7-21.5-2-8.1-0.3-16.1 0.1-22.5 1-5.5 0.8-13.4 2.2-17.5 3.1z"/>
</svg>